<svg width="193" height="30" viewBox="0 0 193 30" fill="none" xmlns="http://www.w3.org/2000/svg">
<path d="M8.728 29.252C7.072 29.252 5.584 28.964 4.264 28.388C2.968 27.788 1.948 26.972 1.204 25.94C0.46 24.884 0.0760001 23.672 0.0520001 22.304H3.544C3.664 23.48 4.144 24.476 4.984 25.292C5.848 26.084 7.096 26.48 8.728 26.48C10.288 26.48 11.512 26.096 12.4 25.328C13.312 24.536 13.768 23.528 13.768 22.304C13.768 21.344 13.504 20.564 12.976 19.964C12.448 19.364 11.788 18.908 10.996 18.596C10.204 18.284 9.136 17.948 7.792 17.588C6.136 17.156 4.804 16.724 3.796 16.292C2.812 15.86 1.96 15.188 1.24 14.276C0.544 13.34 0.196 12.092 0.196 10.532C0.196 9.164 0.544 7.952 1.24 6.896C1.936 5.84 2.908 5.024 4.156 4.448C5.428 3.872 6.88 3.584 8.512 3.584C10.864 3.584 12.784 4.172 14.272 5.348C15.784 6.524 16.636 8.084 16.828 10.028H13.228C13.108 9.068 12.604 8.228 11.716 7.508C10.828 6.764 9.652 6.392 8.188 6.392C6.82 6.392 5.704 6.752 4.84 7.472C3.976 8.168 3.544 9.152 3.544 10.424C3.544 11.336 3.796 12.08 4.3 12.656C4.828 13.232 5.464 13.676 6.208 13.988C6.976 14.276 8.044 14.612 9.412 14.996C11.068 15.452 12.4 15.908 13.408 16.364C14.416 16.796 15.28 17.48 16 18.416C16.72 19.328 17.08 20.576 17.08 22.16C17.08 23.384 16.756 24.536 16.108 25.616C15.46 26.696 14.5 27.572 13.228 28.244C11.956 28.916 10.456 29.252 8.728 29.252ZM20.6769 19.064C20.6769 17.048 21.0849 15.284 21.9009 13.772C22.7169 12.236 23.8329 11.048 25.2489 10.208C26.6889 9.368 28.2849 8.948 30.0369 8.948C31.7649 8.948 33.2649 9.32 34.5369 10.064C35.8089 10.808 36.7569 11.744 37.3809 12.872V9.272H40.6929V29H37.3809V25.328C36.7329 26.48 35.7609 27.44 34.4649 28.208C33.1929 28.952 31.7049 29.324 30.0009 29.324C28.2489 29.324 26.6649 28.892 25.2489 28.028C23.8329 27.164 22.7169 25.952 21.9009 24.392C21.0849 22.832 20.6769 21.056 20.6769 19.064ZM37.3809 19.1C37.3809 17.612 37.0809 16.316 36.4809 15.212C35.8809 14.108 35.0649 13.268 34.0329 12.692C33.0249 12.092 31.9089 11.792 30.6849 11.792C29.4609 11.792 28.3449 12.08 27.3369 12.656C26.3289 13.232 25.5249 14.072 24.9249 15.176C24.3249 16.28 24.0249 17.576 24.0249 19.064C24.0249 20.576 24.3249 21.896 24.9249 23.024C25.5249 24.128 26.3289 24.98 27.3369 25.58C28.3449 26.156 29.4609 26.444 30.6849 26.444C31.9089 26.444 33.0249 26.156 34.0329 25.58C35.0649 24.98 35.8809 24.128 36.4809 23.024C37.0809 21.896 37.3809 20.588 37.3809 19.1ZM47.921 6.068C47.297 6.068 46.769 5.852 46.337 5.42C45.905 4.988 45.689 4.46 45.689 3.836C45.689 3.212 45.905 2.684 46.337 2.252C46.769 1.82 47.297 1.604 47.921 1.604C48.521 1.604 49.025 1.82 49.433 2.252C49.865 2.684 50.081 3.212 50.081 3.836C50.081 4.46 49.865 4.988 49.433 5.42C49.025 5.852 48.521 6.068 47.921 6.068ZM49.505 9.272V29H46.229V9.272H49.505ZM64.7004 8.912C67.1004 8.912 69.0444 9.644 70.5324 11.108C72.0204 12.548 72.7644 14.636 72.7644 17.372V29H69.5244V17.84C69.5244 15.872 69.0324 14.372 68.0484 13.34C67.0644 12.284 65.7204 11.756 64.0164 11.756C62.2884 11.756 60.9084 12.296 59.8764 13.376C58.8684 14.456 58.3644 16.028 58.3644 18.092V29H55.0884V9.272H58.3644V12.08C59.0124 11.072 59.8884 10.292 60.9924 9.74C62.1204 9.188 63.3564 8.912 64.7004 8.912ZM82.1118 11.972V23.6C82.1118 24.56 82.3158 25.244 82.7238 25.652C83.1318 26.036 83.8398 26.228 84.8477 26.228H87.2598V29H84.3078C82.4838 29 81.1158 28.58 80.2038 27.74C79.2918 26.9 78.8358 25.52 78.8358 23.6V11.972H76.2798V9.272H78.8358V4.304H82.1118V9.272H87.2598V11.972H82.1118Z" fill="white"/>
<path d="M99.833 29.252C97.985 29.252 96.329 28.952 94.865 28.352C93.401 27.752 92.225 26.864 91.337 25.688C90.473 24.512 90.017 23.096 89.969 21.44H96.521C96.617 22.376 96.941 23.096 97.493 23.6C98.045 24.08 98.765 24.32 99.653 24.32C100.565 24.32 101.285 24.116 101.813 23.708C102.341 23.276 102.605 22.688 102.605 21.944C102.605 21.32 102.389 20.804 101.957 20.396C101.549 19.988 101.033 19.652 100.409 19.388C99.809 19.124 98.945 18.824 97.817 18.488C96.185 17.984 94.853 17.48 93.821 16.976C92.789 16.472 91.901 15.728 91.157 14.744C90.413 13.76 90.041 12.476 90.041 10.892C90.041 8.54 90.893 6.704 92.597 5.384C94.301 4.04 96.521 3.368 99.257 3.368C102.041 3.368 104.285 4.04 105.989 5.384C107.693 6.704 108.605 8.552 108.725 10.928H102.065C102.017 10.112 101.717 9.476 101.165 9.02C100.613 8.54 99.905 8.3 99.041 8.3C98.297 8.3 97.697 8.504 97.241 8.912C96.785 9.296 96.557 9.86 96.557 10.604C96.557 11.42 96.941 12.056 97.709 12.512C98.477 12.968 99.677 13.46 101.309 13.988C102.941 14.54 104.261 15.068 105.269 15.572C106.301 16.076 107.189 16.808 107.933 17.768C108.677 18.728 109.049 19.964 109.049 21.476C109.049 22.916 108.677 24.224 107.933 25.4C107.213 26.576 106.157 27.512 104.765 28.208C103.373 28.904 101.729 29.252 99.833 29.252ZM125.185 8.696C127.489 8.696 129.337 9.464 130.729 11C132.121 12.512 132.817 14.6 132.817 17.264V29H126.697V18.092C126.697 16.748 126.349 15.704 125.653 14.96C124.957 14.216 124.021 13.844 122.845 13.844C121.669 13.844 120.733 14.216 120.037 14.96C119.341 15.704 118.993 16.748 118.993 18.092V29H112.837V2.36H118.993V11.612C119.617 10.724 120.469 10.016 121.549 9.488C122.629 8.96 123.841 8.696 125.185 8.696ZM140.191 6.824C139.111 6.824 138.223 6.512 137.527 5.888C136.855 5.24 136.519 4.448 136.519 3.512C136.519 2.552 136.855 1.76 137.527 1.136C138.223 0.487998 139.111 0.163998 140.191 0.163998C141.247 0.163998 142.111 0.487998 142.783 1.136C143.479 1.76 143.827 2.552 143.827 3.512C143.827 4.448 143.479 5.24 142.783 5.888C142.111 6.512 141.247 6.824 140.191 6.824ZM143.251 8.912V29H137.095V8.912H143.251ZM153.868 11.756C154.444 10.82 155.272 10.064 156.352 9.488C157.432 8.912 158.668 8.624 160.06 8.624C161.716 8.624 163.216 9.044 164.56 9.884C165.904 10.724 166.96 11.924 167.728 13.484C168.52 15.044 168.916 16.856 168.916 18.92C168.916 20.984 168.52 22.808 167.728 24.392C166.96 25.952 165.904 27.164 164.56 28.028C163.216 28.868 161.716 29.288 160.06 29.288C158.644 29.288 157.408 29.012 156.352 28.46C155.296 27.884 154.468 27.128 153.868 26.192V29H147.712V2.36H153.868V11.756ZM162.652 18.92C162.652 17.384 162.22 16.184 161.356 15.32C160.516 14.432 159.472 13.988 158.224 13.988C157 13.988 155.956 14.432 155.092 15.32C154.252 16.208 153.832 17.42 153.832 18.956C153.832 20.492 154.252 21.704 155.092 22.592C155.956 23.48 157 23.924 158.224 23.924C159.448 23.924 160.492 23.48 161.356 22.592C162.22 21.68 162.652 20.456 162.652 18.92ZM170.922 18.92C170.922 16.856 171.306 15.044 172.074 13.484C172.866 11.924 173.934 10.724 175.278 9.884C176.622 9.044 178.122 8.624 179.778 8.624C181.194 8.624 182.43 8.912 183.486 9.488C184.566 10.064 185.394 10.82 185.97 11.756V8.912H192.126V29H185.97V26.156C185.37 27.092 184.53 27.848 183.45 28.424C182.394 29 181.158 29.288 179.742 29.288C178.11 29.288 176.622 28.868 175.278 28.028C173.934 27.164 172.866 25.952 172.074 24.392C171.306 22.808 170.922 20.984 170.922 18.92ZM185.97 18.956C185.97 17.42 185.538 16.208 184.674 15.32C183.834 14.432 182.802 13.988 181.578 13.988C180.354 13.988 179.31 14.432 178.446 15.32C177.606 16.184 177.186 17.384 177.186 18.92C177.186 20.456 177.606 21.68 178.446 22.592C179.31 23.48 180.354 23.924 181.578 23.924C182.802 23.924 183.834 23.48 184.674 22.592C185.538 21.704 185.97 20.492 185.97 18.956Z" fill="#F06500"/>
</svg>
